<svg width="21" height="21" viewBox="0 0 21 21" fill="none" xmlns="http://www.w3.org/2000/svg">
<path fill-rule="evenodd" clip-rule="evenodd" d="M10.9247 18.4998C6.51465 18.4998 2.92465 14.9098 2.92465 10.4998C2.92465 6.08976 6.51465 2.49976 10.9247 2.49976C15.3347 2.49976 18.9247 6.08976 18.9247 10.4998C18.9247 14.9098 15.3347 18.4998 10.9247 18.4998ZM10.9247 0.499756C5.40465 0.499756 0.924652 4.97976 0.924652 10.4998C0.924652 16.0198 5.40465 20.4998 10.9247 20.4998C16.4447 20.4998 20.9247 16.0198 20.9247 10.4998C20.9247 4.97976 16.4447 0.499756 10.9247 0.499756Z" fill="#BEBEBE"/>
<path fill-rule="evenodd" clip-rule="evenodd" d="M12.3543 7.21476C12.3543 7.44876 12.1603 7.64376 11.9253 7.64376H10.2103C9.97635 7.64376 9.78235 7.44876 9.78235 7.21476V5.92876C9.78235 5.69376 9.97635 5.49976 10.2103 5.49976H11.9253C12.1603 5.49976 12.3543 5.69376 12.3543 5.92876V7.21476ZM13.2113 14.5028C13.2113 14.7368 13.0173 14.9318 12.7833 14.9318H9.35335C9.11935 14.9318 8.92435 14.7368 8.92435 14.5028V13.6458C8.92435 13.4108 9.11935 13.2168 9.35335 13.2168H9.78235V10.6448H9.35335C9.11935 10.6448 8.92435 10.4498 8.92435 10.2158V9.35876C8.92435 9.12376 9.11935 8.92976 9.35335 8.92976H11.9253C12.1603 8.92976 12.3543 9.12376 12.3543 9.35876V13.2168H12.7833C13.0173 13.2168 13.2113 13.4108 13.2113 13.6458V14.5028Z" fill="#BEBEBE"/>
</svg>
