<svg width="14" height="19" viewBox="0 0 14 19" fill="none" xmlns="http://www.w3.org/2000/svg">
<g clip-path="url(#clip0_26_60)">
<path d="M7 17.625C7.28776 17.625 7.50911 17.5143 7.66406 17.293C8.19531 16.5182 8.7985 15.6439 9.47363 14.6699C10.1488 13.696 10.6302 13.0098 10.918 12.6113C11.2057 12.2129 11.5378 11.7204 11.9141 11.1338C12.2904 10.5472 12.5394 10.1322 12.6611 9.88867C12.7829 9.64518 12.9157 9.33529 13.0596 8.95898C13.2035 8.58268 13.292 8.25618 13.3252 7.97949C13.3584 7.7028 13.375 7.3763 13.375 7C13.375 5.22917 12.7552 3.72396 11.5156 2.48438C10.276 1.24479 8.77083 0.625 7 0.625C5.22917 0.625 3.72396 1.24479 2.48438 2.48438C1.24479 3.72396 0.625 5.22917 0.625 7C0.625 7.3763 0.641602 7.7028 0.674805 7.97949C0.708008 8.25618 0.796549 8.58268 0.94043 8.95898C1.08431 9.33529 1.21712 9.64518 1.33887 9.88867C1.46061 10.1322 1.70964 10.5472 2.08594 11.1338C2.46224 11.7204 2.79427 12.2129 3.08203 12.6113C3.36979 13.0098 3.85124 13.696 4.52637 14.6699C5.2015 15.6439 5.80469 16.5182 6.33594 17.293C6.49089 17.5143 6.71224 17.625 7 17.625ZM7 9.65625C6.26953 9.65625 5.63867 9.40169 5.10742 8.89258C4.59831 8.36133 4.34375 7.73047 4.34375 7C4.34375 6.26953 4.60384 5.64421 5.12402 5.12402C5.64421 4.60384 6.26953 4.34375 7 4.34375C7.73047 4.34375 8.35579 4.60384 8.87598 5.12402C9.39616 5.64421 9.65625 6.26953 9.65625 7C9.65625 7.73047 9.39616 8.35579 8.87598 8.87598C8.35579 9.39616 7.73047 9.65625 7 9.65625Z" fill="white" fill-opacity="0.4"/>
</g>
<defs>
<clipPath id="clip0_26_60">
<rect width="13" height="18" fill="white" transform="translate(0.5 0.5)"/>
</clipPath>
</defs>
</svg>
